<svg width="20" height="20" viewBox="0 0 20 20" fill="none" xmlns="http://www.w3.org/2000/svg">
<g clip-path="url(#clip0_2053_2704)">
<path d="M12.5 9.16666V4.16666L10 1.66666L7.5 4.16666V5.83332H2.5V17.5H17.5V9.16666H12.5ZM5.83333 15.8333H4.16667V14.1667H5.83333V15.8333ZM5.83333 12.5H4.16667V10.8333H5.83333V12.5ZM5.83333 9.16666H4.16667V7.49999H5.83333V9.16666ZM10.8333 15.8333H9.16667V14.1667H10.8333V15.8333ZM10.8333 12.5H9.16667V10.8333H10.8333V12.5ZM10.8333 9.16666H9.16667V7.49999H10.8333V9.16666ZM10.8333 5.83332H9.16667V4.16666H10.8333V5.83332ZM15.8333 15.8333H14.1667V14.1667H15.8333V15.8333ZM15.8333 12.5H14.1667V10.8333H15.8333V12.5Z" fill="#0F3C56"/>
</g>
<defs>
<clipPath id="clip0_2053_2704">
<rect width="20" height="20" fill="white"/>
</clipPath>
</defs>
</svg>
