<svg width="20" height="20" viewBox="0 0 20 20" fill="none" xmlns="http://www.w3.org/2000/svg">
<g clip-path="url(#clip0_2053_2704)">
<path d="M16.6666 0.833344V3.33334H19.1666V5.00001H16.6666V7.50001H14.9999V5.00001H12.4999V3.33334H14.9999V0.833344H16.6666ZM9.99992 10.8333C10.9166 10.8333 11.6666 10.0833 11.6666 9.16668C11.6666 8.25001 10.9166 7.50001 9.99992 7.50001C9.08325 7.50001 8.33325 8.25001 8.33325 9.16668C8.33325 10.0833 9.08325 10.8333 9.99992 10.8333ZM11.6666 2.70834V5.83334H14.1666V8.33334H16.5999C16.6416 8.65834 16.6666 8.99168 16.6666 9.33334C16.6666 12.1 14.4416 15.375 9.99992 19.1667C5.55825 15.375 3.33325 12.1 3.33325 9.33334C3.33325 5.18334 6.49992 2.50001 9.99992 2.50001C10.5666 2.50001 11.1249 2.56668 11.6666 2.70834Z" fill="#0F3C56"/>
</g>
<defs>
<clipPath id="clip0_2053_2704">
<rect width="20" height="20" fill="white"/>
</clipPath>
</defs>
</svg>
