<svg width="36" height="36" viewBox="0 0 36 36" fill="none" xmlns="http://www.w3.org/2000/svg">
<g clip-path="url(#clip0_906_897)">
<path d="M18 22.8002C20.6509 22.8002 22.7999 20.6512 22.7999 18.0002C22.7999 15.3492 20.6509 13.2002 18 13.2002C15.349 13.2002 13.2 15.3492 13.2 18.0002C13.2 20.6512 15.349 22.8002 18 22.8002Z" fill="white"/>
<path d="M13.5 3L10.755 6H6C4.35 6 3 7.35 3 9V27C3 28.65 4.35 30 6 30H30C31.65 30 33 28.65 33 27V9C33 7.35 31.65 6 30 6H25.245L22.5 3H13.5ZM18 25.5C13.86 25.5 10.5 22.14 10.5 18C10.5 13.86 13.86 10.5 18 10.5C22.14 10.5 25.5 13.86 25.5 18C25.5 22.14 22.14 25.5 18 25.5Z" fill="white"/>
</g>
<defs>
<clipPath id="clip0_906_897">
<rect width="36" height="36" fill="white"/>
</clipPath>
</defs>
</svg>
