<svg width="40" height="40" viewBox="0 0 40 40" fill="none" xmlns="http://www.w3.org/2000/svg">
<path d="M4.47796 26.0752L7.65828 24.2393C7.83055 24.1398 8.0327 24.1053 8.22821 24.1419L14.4857 25.313C15 25.4092 15.4747 25.0134 15.4723 24.4902L15.448 19.0075C15.4473 18.8585 15.4866 18.7121 15.5617 18.5835L18.7196 13.1771C18.884 12.8957 18.8692 12.5443 18.6819 12.2777L13.3649 4.70951M31.6671 8.09846C22.5004 12.5001 27.5001 18.3334 29.1671 19.1668C32.2955 20.7307 36.6461 20.8334 36.6461 20.8334C36.6597 20.5573 36.6667 20.2795 36.6667 20C36.6667 10.7953 29.2048 3.33337 20 3.33337C10.7953 3.33337 3.33337 10.7953 3.33337 20C3.33337 29.2048 10.7953 36.6667 20 36.6667C20.2795 36.6667 20.5573 36.6598 20.8334 36.6462M27.9297 36.5664L22.6517 22.6517L36.5664 27.9297L30.3961 30.3961L27.9297 36.5664Z" stroke="currentColor" stroke-width="2" stroke-linecap="round" stroke-linejoin="round"/>
</svg>
