<svg width="16" height="16" viewBox="0 0 16 16" fill="none" xmlns="http://www.w3.org/2000/svg">
<g clip-path="url(#clip0_1529_7298)">
<path d="M7.99998 1.33325C4.31998 1.33325 1.33331 4.31992 1.33331 7.99992C1.33331 11.6799 4.31998 14.6666 7.99998 14.6666C11.68 14.6666 14.6666 11.6799 14.6666 7.99992C14.6666 4.31992 11.68 1.33325 7.99998 1.33325ZM8.66665 12.6666H7.33331V11.3333H8.66665V12.6666ZM10.0466 7.49992L9.44665 8.11325C8.96665 8.59992 8.66665 8.99992 8.66665 9.99992H7.33331V9.66659C7.33331 8.93325 7.63331 8.26659 8.11331 7.77992L8.93998 6.93992C9.18665 6.69992 9.33331 6.36659 9.33331 5.99992C9.33331 5.26659 8.73331 4.66659 7.99998 4.66659C7.26665 4.66659 6.66665 5.26659 6.66665 5.99992H5.33331C5.33331 4.52659 6.52665 3.33325 7.99998 3.33325C9.47331 3.33325 10.6666 4.52659 10.6666 5.99992C10.6666 6.58659 10.4266 7.11992 10.0466 7.49992Z" fill="#323232"/>
</g>
<defs>
<clipPath id="clip0_1529_7298">
<rect width="16" height="16" fill="white"/>
</clipPath>
</defs>
</svg>
