<svg width="24" height="24" viewBox="0 0 24 24" fill="none" xmlns="http://www.w3.org/2000/svg">
<g id="instagram 1" clip-path="url(#clip0_2812_3844)">
<g id="Layer 2">
<g id="Circle">
<g id="03.Instagram">
<path id="Background" d="M24 12C24 5.37258 18.6274 0 12 0C5.37258 0 0 5.37258 0 12C0 18.6274 5.37258 24 12 24C18.6274 24 24 18.6274 24 12Z" fill="url(#paint0_linear_2812_3844)"/>
<g id="Group">
<path id="Shade" opacity="0.1" d="M21.0314 4.1055C19.282 7.31708 16.8078 10.6297 13.7162 13.7213C10.6246 16.8129 7.31197 19.2823 4.10513 21.0318C3.90408 20.8571 3.70881 20.675 3.51934 20.4855C2.37406 19.3785 1.46064 18.0545 0.832344 16.5908C0.204046 15.1271 -0.126556 13.5529 -0.140186 11.9601C-0.153815 10.3673 0.1498 8.78772 0.752958 7.31347C1.35611 5.83922 2.24674 4.49981 3.37291 3.37333C4.49908 2.24684 5.83824 1.35584 7.31232 0.752273C8.7864 0.148705 10.3659 -0.155352 11.9587 -0.142167C13.5515 -0.128982 15.1258 0.201181 16.5896 0.82907C18.0535 1.45696 19.3778 2.37001 20.4851 3.51498C20.6746 3.70445 20.8567 3.90129 21.0314 4.1055Z" fill="white"/>
<g id="Icon">
<path id="Vector" d="M14.842 5.68457H9.15777C8.23649 5.68457 7.35294 6.05055 6.7015 6.70199C6.05006 7.35343 5.68408 8.23698 5.68408 9.15825V14.8425C5.68408 15.7637 6.05006 16.6473 6.7015 17.2987C7.35294 17.9502 8.23649 18.3161 9.15777 18.3161H14.842C15.7633 18.3161 16.6468 17.9502 17.2982 17.2987C17.9497 16.6473 18.3157 15.7637 18.3157 14.8425V9.15825C18.3157 8.23698 17.9497 7.35343 17.2982 6.70199C16.6468 6.05055 15.7633 5.68457 14.842 5.68457ZM17.2104 14.3435C17.2104 15.104 16.9083 15.8333 16.3706 16.3711C15.8328 16.9088 15.1035 17.2109 14.343 17.2109H9.65671C8.89624 17.2109 8.16691 16.9088 7.62918 16.3711C7.09144 15.8333 6.78935 15.104 6.78935 14.3435V9.6572C6.78935 8.89673 7.09144 8.1674 7.62918 7.62967C8.16691 7.09193 8.89624 6.78983 9.65671 6.78983H14.343C15.1035 6.78983 15.8328 7.09193 16.3706 7.62967C16.9083 8.1674 17.2104 8.89673 17.2104 9.6572V14.3435Z" fill="white"/>
<path id="Vector_2" d="M14.3034 9.7205L14.2734 9.6905L14.2481 9.66524C13.6511 9.0703 12.8426 8.73642 11.9997 8.73682C11.5741 8.73971 11.1532 8.82643 10.7611 8.99204C10.369 9.15764 10.0134 9.39887 9.71459 9.70196C9.41575 10.005 9.17957 10.364 9.01952 10.7584C8.85947 11.1528 8.7787 11.5749 8.78183 12.0005C8.78118 12.8643 9.12166 13.6933 9.72919 14.3073C10.0268 14.6085 10.3814 14.8474 10.7723 15.0101C11.1632 15.1728 11.5826 15.2559 12.006 15.2547C12.6411 15.2414 13.2587 15.0435 13.7833 14.6853C14.3079 14.3271 14.7169 13.8239 14.9604 13.2372C15.204 12.6505 15.2716 12.0056 15.1549 11.3811C15.0382 10.7567 14.7424 10.1797 14.3034 9.7205ZM11.9997 14.1416C11.575 14.1475 11.1582 14.027 10.8022 13.7954C10.4461 13.5638 10.167 13.2315 10.0004 12.8408C9.83372 12.4502 9.78702 12.0188 9.86622 11.6015C9.94541 11.1842 10.1469 10.7999 10.4451 10.4975C10.7433 10.195 11.1247 9.98812 11.5409 9.90305C11.957 9.81797 12.389 9.85859 12.782 10.0197C13.175 10.1809 13.5111 10.4552 13.7478 10.8079C13.9844 11.1607 14.1107 11.5758 14.1108 12.0005C14.1129 12.2797 14.0599 12.5566 13.9549 12.8154C13.8499 13.0741 13.695 13.3096 13.4989 13.5085C13.3029 13.7073 13.0696 13.8656 12.8123 13.9742C12.5551 14.0828 12.2789 14.1397 11.9997 14.1416Z" fill="white"/>
<path id="Vector_3" d="M16.1729 8.58667C16.1737 8.68799 16.1545 8.78848 16.1165 8.88239C16.0784 8.97629 16.0222 9.06177 15.9511 9.13393C15.88 9.20609 15.7953 9.26351 15.702 9.3029C15.6086 9.3423 15.5084 9.3629 15.4071 9.36351C15.3066 9.36347 15.2072 9.34349 15.1145 9.30473C15.0218 9.26597 14.9377 9.20921 14.8671 9.13772C14.7601 9.02919 14.6874 8.89165 14.6578 8.74216C14.6283 8.59266 14.6433 8.43779 14.701 8.29674C14.7586 8.15568 14.8564 8.03466 14.9822 7.94867C15.108 7.86267 15.2563 7.8155 15.4087 7.81299C15.587 7.81295 15.7597 7.87554 15.8966 7.98983L15.9123 8.00562C15.9378 8.02635 15.9611 8.04963 15.9818 8.07509L15.9992 8.09404C16.1122 8.23328 16.1736 8.40734 16.1729 8.58667Z" fill="white"/>
</g>
</g>
</g>
</g>
</g>
</g>
<defs>
<linearGradient id="paint0_linear_2812_3844" x1="3.51474" y1="3.51474" x2="20.4853" y2="20.4853" gradientUnits="userSpaceOnUse">
<stop stop-color="#FAE100"/>
<stop offset="0.15" stop-color="#FCB720"/>
<stop offset="0.3" stop-color="#FF7950"/>
<stop offset="0.5" stop-color="#FF1C74"/>
<stop offset="1" stop-color="#6C1CD1"/>
</linearGradient>
<clipPath id="clip0_2812_3844">
<rect width="24" height="24" fill="white"/>
</clipPath>
</defs>
</svg>
