<svg width="24" height="18" viewBox="0 0 24 18" fill="none" xmlns="http://www.w3.org/2000/svg">
<path d="M11.9865 10.738L23.8412 3.40253V1.71074C23.8412 1.29056 23.5006 0.950195 23.0807 0.950195H0.89238C0.472461 0.950195 0.131836 1.29056 0.131836 1.71074V3.40253L11.9865 10.738Z" fill="#0F3C56"/>
<path d="M12.1944 11.5389C12.1915 11.5407 12.1883 11.541 12.1857 11.5428C12.1646 11.5552 12.142 11.5639 12.119 11.5721C12.1085 11.5758 12.0987 11.5813 12.0879 11.5842C12.0577 11.5924 12.0266 11.5961 11.995 11.5968C11.9921 11.5968 11.9894 11.5979 11.9868 11.5979H11.9865H11.9863C11.9834 11.5979 11.9807 11.5968 11.9781 11.5968C11.9467 11.5961 11.9154 11.5921 11.8851 11.5842C11.8746 11.5813 11.8646 11.5758 11.854 11.5721C11.8311 11.5639 11.8087 11.5552 11.7874 11.5428C11.7845 11.5413 11.7813 11.5407 11.7787 11.5389L0.131836 4.33203V16.2629C0.131836 16.6828 0.472461 17.0234 0.89238 17.0234H23.0807C23.5006 17.0234 23.8412 16.6828 23.8412 16.2629V4.33203L12.1944 11.5389Z" fill="#0F3C56"/>
</svg>
