<svg width="40" height="40" viewBox="0 0 40 40" fill="none" xmlns="http://www.w3.org/2000/svg">
<g clip-path="url(#clip0_1529_7280)">
<path d="M27.5 21.6667C25.5 21.6667 22.3833 22.2334 20 23.3334C17.6166 22.2167 14.5 21.6667 12.5 21.6667C8.88329 21.6667 1.66663 23.4667 1.66663 27.0834V31.6667H38.3333V27.0834C38.3333 23.4667 31.1166 21.6667 27.5 21.6667ZM20.8333 29.1667H4.16663V27.0834C4.16663 26.1834 8.43329 24.1667 12.5 24.1667C16.5666 24.1667 20.8333 26.1834 20.8333 27.0834V29.1667ZM35.8333 29.1667H23.3333V27.0834C23.3333 26.3167 23 25.65 22.4666 25.05C23.9333 24.55 25.7333 24.1667 27.5 24.1667C31.5666 24.1667 35.8333 26.1834 35.8333 27.0834V29.1667ZM12.5 20C15.7166 20 18.3333 17.3834 18.3333 14.1667C18.3333 10.95 15.7166 8.33337 12.5 8.33337C9.28329 8.33337 6.66663 10.95 6.66663 14.1667C6.66663 17.3834 9.28329 20 12.5 20ZM12.5 10.8334C14.3333 10.8334 15.8333 12.3334 15.8333 14.1667C15.8333 16 14.3333 17.5 12.5 17.5C10.6666 17.5 9.16663 16 9.16663 14.1667C9.16663 12.3334 10.6666 10.8334 12.5 10.8334ZM27.5 20C30.7166 20 33.3333 17.3834 33.3333 14.1667C33.3333 10.95 30.7166 8.33337 27.5 8.33337C24.2833 8.33337 21.6666 10.95 21.6666 14.1667C21.6666 17.3834 24.2833 20 27.5 20ZM27.5 10.8334C29.3333 10.8334 30.8333 12.3334 30.8333 14.1667C30.8333 16 29.3333 17.5 27.5 17.5C25.6666 17.5 24.1666 16 24.1666 14.1667C24.1666 12.3334 25.6666 10.8334 27.5 10.8334Z" fill="currentColor"/>
</g>
<defs>
<clipPath id="clip0_1529_7280">
<rect width="40" height="40" fill="white"/>
</clipPath>
</defs>
</svg>
