<svg width="40" height="40" viewBox="0 0 40 40" fill="none" xmlns="http://www.w3.org/2000/svg">
<path d="M20 36.6667C29.2048 36.6667 36.6667 29.2048 36.6667 20C36.6667 10.7953 29.2048 3.33337 20 3.33337C10.7953 3.33337 3.33337 10.7953 3.33337 20C3.33337 29.2048 10.7953 36.6667 20 36.6667Z" fill="currentColor"/>
<path d="M20 13.3334V26.6667M13.3334 20H26.6667M36.6667 20C36.6667 29.2048 29.2048 36.6667 20 36.6667C10.7953 36.6667 3.33337 29.2048 3.33337 20C3.33337 10.7953 10.7953 3.33337 20 3.33337C29.2048 3.33337 36.6667 10.7953 36.6667 20Z" stroke="white" stroke-width="2" stroke-linecap="round" stroke-linejoin="round"/>
</svg>
