<svg width="20" height="20" viewBox="0 0 20 20" fill="none" xmlns="http://www.w3.org/2000/svg">
<path d="M17.077 2.92816C14.995 0.845162 12.155 -0.205838 9.17302 0.0341617C5.16402 0.356162 1.65002 3.14416 0.474016 6.99016C-0.365984 9.73816 -0.0129836 12.6072 1.35502 14.9772L0.0590165 19.2802C-0.0649835 19.6932 0.312017 20.0822 0.729017 19.9712L5.23302 18.7642C6.69202 19.5602 8.33402 19.9792 10.006 19.9802H10.01C14.205 19.9802 18.081 17.4142 19.422 13.4392C20.728 9.56316 19.762 5.61616 17.077 2.92816ZM14.898 13.5542C14.69 14.1372 13.671 14.6992 13.213 14.7402C12.755 14.7822 12.326 14.9472 10.218 14.1162C7.68102 13.1162 6.07902 10.5152 5.95502 10.3492C5.83002 10.1822 4.93602 8.99616 4.93602 7.76816C4.93602 6.54016 5.58102 5.93616 5.81002 5.68716C6.03902 5.43716 6.30902 5.37516 6.47602 5.37516C6.64202 5.37516 6.80902 5.37516 6.95402 5.38116C7.13202 5.38816 7.32902 5.39716 7.51602 5.81216C7.73802 6.30616 8.22302 7.54016 8.28502 7.66516C8.34702 7.79016 8.38902 7.93616 8.30602 8.10216C8.22302 8.26816 8.18102 8.37216 8.05702 8.51816C7.93202 8.66416 7.79502 8.84316 7.68302 8.95516C7.55802 9.07916 7.42802 9.21516 7.57302 9.46416C7.71902 9.71416 8.21902 10.5312 8.96102 11.1922C9.91502 12.0422 10.718 12.3052 10.968 12.4312C11.218 12.5562 11.363 12.5352 11.509 12.3682C11.655 12.2022 12.133 11.6402 12.299 11.3902C12.465 11.1402 12.632 11.1822 12.861 11.2652C13.09 11.3482 14.317 11.9522 14.566 12.0772C14.816 12.2022 14.982 12.2642 15.044 12.3682C15.106 12.4712 15.106 12.9712 14.898 13.5542Z" fill="#0F3C56"/>
</svg>
